<svg xmlns="http://www.w3.org/2000/svg" viewBox="0 0 240 240" width="120" height="120">
  <!-- Background -->
  <rect x="20" y="20" width="200" height="200" rx="15" ry="15" fill="none" stroke="#9f7aea" stroke-width="2" stroke-dasharray="10 5" />
  
  <!-- Cloud -->
  <g>
    <animateTransform attributeName="transform" type="translate" values="0,0; 0,-5; 0,0" dur="3s" repeatCount="indefinite" />
    <path d="M120,70 C100,70 85,85 85,105 C75,105 65,115 65,130 C65,145 80,160 95,160 L145,160 C160,160 175,145 175,130 C175,115 165,105 155,105 C155,85 140,70 120,70 Z" fill="#9f7aea" opacity="0.9" />
    
    <!-- Cloud Details -->
    <circle cx="95" cy="105" r="10" fill="#805ad5" opacity="0.8" />
    <circle cx="145" cy="105" r="10" fill="#805ad5" opacity="0.8" />
    <circle cx="120" cy="90" r="12" fill="#805ad5" opacity="0.8" />
  </g>
  
  <!-- Devices Connected to Cloud -->
  <g>
    <!-- Device 1 (Desktop) -->
    <g transform="translate(60, 190)">
      <animateTransform attributeName="transform" type="translate" values="60,190; 55,190; 60,190" dur="4s" repeatCount="indefinite" />
      <rect x="-15" y="-15" width="30" height="25" rx="2" ry="2" fill="#1a202c" stroke="#d264b6" stroke-width="1.5" />
      <rect x="-10" y="-10" width="20" height="15" rx="1" ry="1" fill="#f06292" opacity="0.7" />
      <rect x="-12" y="10" width="24" height="5" rx="1" ry="1" fill="#1a202c" stroke="#d264b6" stroke-width="1" />
    </g>
    
    <!-- Device 2 (Mobile) -->
    <g transform="translate(120, 190)">
      <animateTransform attributeName="transform" type="translate" values="120,190; 120,185; 120,190" dur="3s" repeatCount="indefinite" />
      <rect x="-7" y="-15" width="14" height="25" rx="2" ry="2" fill="#1a202c" stroke="#d264b6" stroke-width="1.5" />
      <rect x="-5" y="-12" width="10" height="18" rx="1" ry="1" fill="#9f7aea" opacity="0.7" />
      <circle cx="0" cy="8" r="1.5" fill="white" opacity="0.8" />
    </g>
    
    <!-- Device 3 (Tablet) -->
    <g transform="translate(180, 190)">
      <animateTransform attributeName="transform" type="translate" values="180,190; 185,190; 180,190" dur="4s" repeatCount="indefinite" />
      <rect x="-12" y="-15" width="24" height="30" rx="2" ry="2" fill="#1a202c" stroke="#d264b6" stroke-width="1.5" />
      <rect x="-9" y="-12" width="18" height="24" rx="1" ry="1" fill="#f06292" opacity="0.7" />
      <circle cx="0" cy="14" r="1.5" fill="white" opacity="0.8" />
    </g>
  </g>
  
  <!-- Connection Lines -->
  <g stroke="#805ad5" stroke-width="2" stroke-dasharray="3 2">
    <path d="M120,160 L60,175" opacity="0.8" />
    <path d="M120,160 L120,175" opacity="0.8" />
    <path d="M120,160 L180,175" opacity="0.8" />
  </g>
  
  <!-- Upload/Download Arrows -->
  <g>
    <!-- Upload Arrow -->
    <g transform="translate(90, 140)">
      <animateTransform attributeName="transform" type="translate" values="90,140; 90,135; 90,140" dur="2s" repeatCount="indefinite" />
      <path d="M0,10 L0,-10" stroke="white" stroke-width="2" stroke-linecap="round" />
      <path d="M-5,-5 L0,-10 L5,-5" stroke="white" stroke-width="2" stroke-linecap="round" fill="none" />
    </g>
    
    <!-- Download Arrow -->
    <g transform="translate(150, 140)">
      <animateTransform attributeName="transform" type="translate" values="150,140; 150,145; 150,140" dur="2s" repeatCount="indefinite" />
      <path d="M0,-10 L0,10" stroke="white" stroke-width="2" stroke-linecap="round" />
      <path d="M-5,5 L0,10 L5,5" stroke="white" stroke-width="2" stroke-linecap="round" fill="none" />
    </g>
  </g>
  
  <!-- Sparkles -->
  <g>
    <circle cx="40" cy="40" r="3" fill="#f06292">
      <animate attributeName="opacity" values="0;1;0" dur="2s" repeatCount="indefinite" />
    </circle>
    <circle cx="200" cy="40" r="3" fill="#f06292">
      <animate attributeName="opacity" values="0;1;0" dur="1.5s" repeatCount="indefinite" />
    </circle>
    <circle cx="40" cy="200" r="3" fill="#f06292">
      <animate attributeName="opacity" values="0;1;0" dur="2.5s" repeatCount="indefinite" />
    </circle>
    <circle cx="200" cy="200" r="3" fill="#f06292">
      <animate attributeName="opacity" values="0;1;0" dur="1.8s" repeatCount="indefinite" />
    </circle>
    <circle cx="120" cy="50" r="3" fill="#f06292">
      <animate attributeName="opacity" values="0;1;0" dur="1.2s" repeatCount="indefinite" />
    </circle>
  </g>
  
  <!-- Stars -->
  <path d="M30,30 L33,38 L42,39 L36,45 L38,54 L30,50 L22,54 L24,45 L18,39 L27,38 Z" fill="#f06292">
    <animateTransform attributeName="transform" type="rotate" from="0 30 30" to="360 30 30" dur="10s" repeatCount="indefinite" />
  </path>
  
  <path d="M210,30 L213,38 L222,39 L216,45 L218,54 L210,50 L202,54 L204,45 L198,39 L207,38 Z" fill="#9f7aea">
    <animateTransform attributeName="transform" type="rotate" from="0 210 30" to="-360 210 30" dur="15s" repeatCount="indefinite" />
  </path>
  
  <path d="M30,210 L33,218 L42,219 L36,225 L38,234 L30,230 L22,234 L24,225 L18,219 L27,218 Z" fill="#d264b6">
    <animateTransform attributeName="transform" type="rotate" from="0 30 210" to="-360 30 210" dur="12s" repeatCount="indefinite" />
  </path>
  
  <path d="M210,210 L213,218 L222,219 L216,225 L218,234 L210,230 L202,234 L204,225 L198,219 L207,218 Z" fill="#805ad5">
    <animateTransform attributeName="transform" type="rotate" from="0 210 210" to="360 210 210" dur="8s" repeatCount="indefinite" />
  </path>
</svg>